<svg width="32" height="32" viewBox="0 0 32 32" fill="none" xmlns="http://www.w3.org/2000/svg">
<path d="M28.3512 29.7435L24.4436 25.8691C24.0606 26.1307 23.6457 26.329 23.1987 26.464C22.7517 26.5991 22.2837 26.6666 21.7949 26.6666C20.4516 26.6666 19.3017 26.1888 18.3451 25.2332C17.3885 24.2777 16.9103 23.129 16.9103 21.7871C16.9103 20.4453 17.388 19.297 18.3436 18.3423C19.2992 17.3876 20.4479 16.9102 21.7898 16.9102C23.1316 16.9102 24.2799 17.3873 25.2346 18.3413C26.1893 19.2954 26.6666 20.4423 26.6666 21.782C26.6666 22.2839 26.5957 22.7585 26.4538 23.2059C26.3119 23.6532 26.1102 24.0683 25.8487 24.4512L29.7435 28.3384L28.3512 29.7435ZM7.53845 26.6794C6.19872 26.6794 5.05183 26.2021 4.09779 25.2474C3.14372 24.2927 2.66669 23.1376 2.66669 21.782C2.66669 20.4423 3.14372 19.2954 4.09779 18.3413C5.05183 17.3873 6.19872 16.9102 7.53845 16.9102C8.89401 16.9102 10.0491 17.3873 11.0038 18.3413C11.9585 19.2954 12.4359 20.4423 12.4359 21.782C12.4359 23.1376 11.9585 24.2927 11.0038 25.2474C10.0491 26.2021 8.89401 26.6794 7.53845 26.6794ZM21.7949 24.6795C22.5846 24.6795 23.2607 24.3991 23.8231 23.8384C24.3855 23.2778 24.6667 22.5923 24.6667 21.782C24.6667 20.9923 24.3855 20.3162 23.8231 19.7538C23.2607 19.1914 22.5846 18.9102 21.7949 18.9102C20.9846 18.9102 20.2991 19.1914 19.7384 19.7538C19.1777 20.3162 18.8974 20.9923 18.8974 21.782C18.8974 22.5923 19.1777 23.2778 19.7384 23.8384C20.2991 24.3991 20.9846 24.6795 21.7949 24.6795ZM7.53845 12.4487C6.19872 12.4487 5.05183 11.9713 4.09779 11.0166C3.14372 10.0619 2.66669 8.90683 2.66669 7.55127C2.66669 6.21154 3.14372 5.06464 4.09779 4.11057C5.05183 3.15653 6.19872 2.6795 7.53845 2.6795C8.89401 2.6795 10.0491 3.15653 11.0038 4.11057C11.9585 5.06464 12.4359 6.21154 12.4359 7.55127C12.4359 8.90683 11.9585 10.0619 11.0038 11.0166C10.0491 11.9713 8.89401 12.4487 7.53845 12.4487ZM21.7949 12.4487C20.4393 12.4487 19.2842 11.9713 18.3295 11.0166C17.3748 10.0619 16.8975 8.90683 16.8975 7.55127C16.8975 6.21154 17.3748 5.06464 18.3295 4.11057C19.2842 3.15653 20.4393 2.6795 21.7949 2.6795C23.1346 2.6795 24.2815 3.15653 25.2355 4.11057C26.1896 5.06464 26.6666 6.21154 26.6666 7.55127C26.6666 8.90683 26.1896 10.0619 25.2355 11.0166C24.2815 11.9713 23.1346 12.4487 21.7949 12.4487Z" fill="#3F4946"/>
</svg>
